<mxfile host="65bd71144e" modified="2020-11-28T17:09:01.056Z" agent="5.0 (Windows NT 10.0; Win64; x64) AppleWebKit/537.36 (KHTML, like Gecko) Code/1.51.1 Chrome/83.0.4103.122 Electron/9.3.3 Safari/537.36" etag="ptWiWaKUjC6fXzTJKTLv" version="13.6.5">
    <diagram id="87FGbv0y3CxCdWk-Q4nV" name="Page-1">
        <mxGraphModel dx="469" dy="306" grid="1" gridSize="10" guides="1" tooltips="1" connect="1" arrows="1" fold="1" page="1" pageScale="1" pageWidth="827" pageHeight="1169" math="0" shadow="0">
            <root>
                <mxCell id="0"/>
                <mxCell id="1" parent="0"/>
                <mxCell id="Xm_MsKvLFg5GjumQJe7x-76" value="errors" style="shape=umlFrame;whiteSpace=wrap;html=1;" parent="1" vertex="1">
                    <mxGeometry x="20" y="1143" width="460" height="121" as="geometry"/>
                </mxCell>
                <mxCell id="111" value="disconnection" style="shape=umlFrame;whiteSpace=wrap;html=1;width=90;height=34;" parent="1" vertex="1">
                    <mxGeometry x="500" y="1144" width="280" height="121" as="geometry"/>
                </mxCell>
                <mxCell id="112" value="" style="endArrow=none;dashed=1;html=1;" parent="1" edge="1">
                    <mxGeometry width="50" height="50" relative="1" as="geometry">
                        <mxPoint x="560" y="1258" as="sourcePoint"/>
                        <mxPoint x="560" y="1178" as="targetPoint"/>
                    </mxGeometry>
                </mxCell>
                <mxCell id="Xm_MsKvLFg5GjumQJe7x-50" value="loop" style="shape=umlFrame;whiteSpace=wrap;html=1;fontStyle=1" parent="1" vertex="1">
                    <mxGeometry x="120" y="543" width="990" height="320" as="geometry"/>
                </mxCell>
                <mxCell id="82" value="" style="endArrow=none;dashed=1;html=1;entryX=0.5;entryY=1;entryDx=0;entryDy=0;exitX=0.081;exitY=0.01;exitDx=0;exitDy=0;exitPerimeter=0;" parent="1" source="Xm_MsKvLFg5GjumQJe7x-50" target="76" edge="1">
                    <mxGeometry width="50" height="50" relative="1" as="geometry">
                        <mxPoint x="200" y="460" as="sourcePoint"/>
                        <mxPoint x="200" y="180" as="targetPoint"/>
                    </mxGeometry>
                </mxCell>
                <mxCell id="54" value="alt" style="shape=umlFrame;whiteSpace=wrap;html=1;" parent="1" vertex="1">
                    <mxGeometry x="20" y="210" width="1150" height="850" as="geometry"/>
                </mxCell>
                <mxCell id="45" value="" style="rounded=0;whiteSpace=wrap;html=1;" parent="1" vertex="1">
                    <mxGeometry x="555" y="160" width="10" height="90" as="geometry"/>
                </mxCell>
                <mxCell id="81" value="" style="rounded=0;whiteSpace=wrap;html=1;" parent="1" vertex="1">
                    <mxGeometry x="195" y="335" width="10" height="145" as="geometry"/>
                </mxCell>
                <mxCell id="Xm_MsKvLFg5GjumQJe7x-8" value="" style="endArrow=classic;html=1;" parent="1" edge="1">
                    <mxGeometry width="50" height="50" relative="1" as="geometry">
                        <mxPoint x="560" y="160" as="sourcePoint"/>
                        <mxPoint x="200" y="160" as="targetPoint"/>
                    </mxGeometry>
                </mxCell>
                <mxCell id="Xm_MsKvLFg5GjumQJe7x-9" value="connection" style="edgeLabel;html=1;align=center;verticalAlign=middle;resizable=0;points=[];" parent="Xm_MsKvLFg5GjumQJe7x-8" vertex="1" connectable="0">
                    <mxGeometry x="-0.4" y="2" relative="1" as="geometry">
                        <mxPoint x="-72" y="-12" as="offset"/>
                    </mxGeometry>
                </mxCell>
                <mxCell id="47" value="" style="rounded=0;whiteSpace=wrap;html=1;" parent="1" vertex="1">
                    <mxGeometry x="555" y="290" width="10" height="10" as="geometry"/>
                </mxCell>
                <mxCell id="38" value="loop" style="shape=umlFrame;whiteSpace=wrap;html=1;fontStyle=1" parent="1" vertex="1">
                    <mxGeometry x="120" y="543" width="990" height="320" as="geometry"/>
                </mxCell>
                <mxCell id="9" value="" style="endArrow=none;dashed=1;html=1;entryX=0.5;entryY=1;entryDx=0;entryDy=0;" parent="1" source="76" target="8" edge="1">
                    <mxGeometry width="50" height="50" relative="1" as="geometry">
                        <mxPoint x="200" y="460" as="sourcePoint"/>
                        <mxPoint x="200" y="120" as="targetPoint"/>
                    </mxGeometry>
                </mxCell>
                <mxCell id="Xm_MsKvLFg5GjumQJe7x-29" value="alt" style="shape=umlFrame;whiteSpace=wrap;html=1;" parent="1" vertex="1">
                    <mxGeometry x="105" y="493" width="1035" height="480" as="geometry"/>
                </mxCell>
                <mxCell id="3" value="opt" style="shape=umlFrame;whiteSpace=wrap;html=1;" parent="1" vertex="1">
                    <mxGeometry x="125" y="704" width="445" height="116" as="geometry"/>
                </mxCell>
                <mxCell id="19" value="" style="rounded=0;whiteSpace=wrap;html=1;" parent="1" vertex="1">
                    <mxGeometry x="195" y="733" width="10" height="47" as="geometry"/>
                </mxCell>
                <mxCell id="17" value="" style="rounded=0;whiteSpace=wrap;html=1;" parent="1" vertex="1">
                    <mxGeometry x="555" y="600" width="10" height="253" as="geometry"/>
                </mxCell>
                <mxCell id="Xm_MsKvLFg5GjumQJe7x-33" value="" style="endArrow=classic;html=1;" parent="1" edge="1">
                    <mxGeometry width="50" height="50" relative="1" as="geometry">
                        <mxPoint x="200" y="601" as="sourcePoint"/>
                        <mxPoint x="560" y="601" as="targetPoint"/>
                    </mxGeometry>
                </mxCell>
                <mxCell id="Xm_MsKvLFg5GjumQJe7x-34" value="guess { ids: &lt;b&gt;string[]&lt;/b&gt;, data: { password1 : &lt;b&gt;string&lt;/b&gt;, value1: &lt;b&gt;number&lt;/b&gt;, &lt;br&gt;password2: &lt;b&gt;string&lt;/b&gt;&lt;b&gt;, &lt;/b&gt;score: &lt;b&gt;number?&lt;/b&gt;&lt;b&gt;,&amp;nbsp;&lt;/b&gt;timeout:&amp;nbsp;&lt;b&gt;number?&lt;/b&gt;&lt;b&gt;,&amp;nbsp;&lt;/b&gt;lost:&amp;nbsp;&lt;b&gt;boolean?&lt;/b&gt;&lt;b&gt;&lt;br&gt;&lt;/b&gt;,won: &lt;b&gt;boolean&lt;/b&gt;?, guesses: &lt;b&gt;number&lt;/b&gt;, duration: &lt;b&gt;number&lt;/b&gt;, value2: &lt;b&gt;string?&lt;/b&gt;}[] }&lt;span style=&quot;color: rgba(0, 0, 0, 0); font-family: monospace; font-size: 0px;&quot;&gt;%3CmxGraphModel%3E%3Croot%3E%3CmxCell%20id%3D%220%22%2F%3E%3CmxCell%20id%3D%221%22%20parent%3D%220%22%2F%3E%3CmxCell%20id%3D%222%22%20value%3D%22%22%20style%3D%22endArrow%3Dnone%3Bdashed%3D1%3Bhtml%3D1%3BentryX%3D0.5%3BentryY%3D1%3BentryDx%3D0%3BentryDy%3D0%3B%22%20edge%3D%221%22%20parent%3D%221%22%3E%3CmxGeometry%20width%3D%2250%22%20height%3D%2250%22%20relative%3D%221%22%20as%3D%22geometry%22%3E%3CmxPoint%20x%3D%22200%22%20y%3D%22760%22%20as%3D%22sourcePoint%22%2F%3E%3CmxPoint%20x%3D%22200%22%20y%3D%22120%22%20as%3D%22targetPoint%22%2F%3E%3C%2FmxGeometry%3E%3C%2FmxCell%3E%3C%2Froot%3E%3C%2FmxGraphModel%3E&lt;b&gt;v&lt;/b&gt;&lt;/span&gt;" style="edgeLabel;html=1;align=center;verticalAlign=middle;resizable=0;points=[];labelBackgroundColor=none;" parent="Xm_MsKvLFg5GjumQJe7x-33" vertex="1" connectable="0">
                    <mxGeometry x="-0.1141" relative="1" as="geometry">
                        <mxPoint x="21.689999999999998" y="-27" as="offset"/>
                    </mxGeometry>
                </mxCell>
                <mxCell id="Xm_MsKvLFg5GjumQJe7x-43" value="" style="endArrow=classic;html=1;" parent="1" edge="1">
                    <mxGeometry width="50" height="50" relative="1" as="geometry">
                        <mxPoint x="560" y="849.31" as="sourcePoint"/>
                        <mxPoint x="200" y="849.31" as="targetPoint"/>
                    </mxGeometry>
                </mxCell>
                <mxCell id="Xm_MsKvLFg5GjumQJe7x-44" value="answer {higher: &lt;b&gt;psw&lt;/b&gt;}}" style="edgeLabel;html=1;align=center;verticalAlign=middle;resizable=0;points=[];" parent="Xm_MsKvLFg5GjumQJe7x-43" vertex="1" connectable="0">
                    <mxGeometry x="-0.0315" y="-2" relative="1" as="geometry">
                        <mxPoint x="-1.52" y="-8" as="offset"/>
                    </mxGeometry>
                </mxCell>
                <mxCell id="Xm_MsKvLFg5GjumQJe7x-52" value="" style="endArrow=classic;html=1;" parent="1" edge="1">
                    <mxGeometry width="50" height="50" relative="1" as="geometry">
                        <mxPoint x="200" y="899" as="sourcePoint"/>
                        <mxPoint x="560" y="899" as="targetPoint"/>
                    </mxGeometry>
                </mxCell>
                <mxCell id="Xm_MsKvLFg5GjumQJe7x-53" value="&lt;span style=&quot;font-size: 11px&quot;&gt;guess { ids:&amp;nbsp;&lt;/span&gt;&lt;b style=&quot;font-size: 11px&quot;&gt;string[]&lt;/b&gt;&lt;span style=&quot;font-size: 11px&quot;&gt;, data: { password1 :&amp;nbsp;&lt;/span&gt;&lt;b style=&quot;font-size: 11px&quot;&gt;string&lt;/b&gt;&lt;span style=&quot;font-size: 11px&quot;&gt;, value1:&amp;nbsp;&lt;/span&gt;&lt;b style=&quot;font-size: 11px&quot;&gt;number&lt;/b&gt;&lt;span style=&quot;font-size: 11px&quot;&gt;,&amp;nbsp;&lt;/span&gt;&lt;br style=&quot;font-size: 11px&quot;&gt;&lt;span style=&quot;font-size: 11px&quot;&gt;password2:&amp;nbsp;&lt;/span&gt;&lt;b style=&quot;font-size: 11px&quot;&gt;string&lt;/b&gt;&lt;b style=&quot;font-size: 11px&quot;&gt;,&amp;nbsp;&lt;/b&gt;&lt;span style=&quot;font-size: 11px&quot;&gt;score:&amp;nbsp;&lt;/span&gt;&lt;b style=&quot;font-size: 11px&quot;&gt;number&lt;/b&gt;&lt;b style=&quot;font-size: 11px&quot;&gt;,&amp;nbsp;&lt;/b&gt;&lt;span style=&quot;font-size: 11px&quot;&gt;timeout:&amp;nbsp;&lt;/span&gt;&lt;b style=&quot;font-size: 11px&quot;&gt;number&lt;/b&gt;&lt;b style=&quot;font-size: 11px&quot;&gt;,&amp;nbsp;&lt;/b&gt;&lt;span style=&quot;font-size: 11px&quot;&gt;lost:&amp;nbsp;&lt;/span&gt;&lt;b style=&quot;font-size: 11px&quot;&gt;boolean&lt;/b&gt;&lt;b style=&quot;font-size: 11px&quot;&gt;&lt;br&gt;&lt;/b&gt;&lt;span style=&quot;font-size: 11px&quot;&gt;,won: &lt;b&gt;boolean&lt;/b&gt;, guesses:&amp;nbsp;&lt;/span&gt;&lt;b style=&quot;font-size: 11px&quot;&gt;number&lt;/b&gt;&lt;span style=&quot;font-size: 11px&quot;&gt;, duration:&amp;nbsp;&lt;/span&gt;&lt;b style=&quot;font-size: 11px&quot;&gt;number&lt;/b&gt;&lt;span style=&quot;font-size: 11px&quot;&gt;, value2:&amp;nbsp;&lt;/span&gt;&lt;b style=&quot;font-size: 11px&quot;&gt;string&lt;/b&gt;&lt;span style=&quot;font-size: 11px&quot;&gt;}[] }&lt;/span&gt;&lt;span style=&quot;color: rgba(0, 0, 0, 0); font-family: monospace; font-size: 0px;&quot;&gt;%3CmxGraphModel%3E%3Croot%3E%3CmxCell%20id%3D%220%22%2F%3E%3CmxCell%20id%3D%221%22%20parent%3D%220%22%2F%3E%3CmxCell%20id%3D%222%22%20value%3D%22%22%20style%3D%22endArrow%3Dnone%3Bdashed%3D1%3Bhtml%3D1%3BentryX%3D0.5%3BentryY%3D1%3BentryDx%3D0%3BentryDy%3D0%3B%22%20edge%3D%221%22%20parent%3D%221%22%3E%3CmxGeometry%20width%3D%2250%22%20height%3D%2250%22%20relative%3D%221%22%20as%3D%22geometry%22%3E%3CmxPoint%20x%3D%22200%22%20y%3D%22760%22%20as%3D%22sourcePoint%22%2F%3E%3CmxPoint%20x%3D%22200%22%20y%3D%22120%22%20as%3D%22targetPoint%22%2F%3E%3C%2FmxGeometry%3E%3C%2FmxCell%3E%3C%2Froot%3E%3C%2FmxGraphModel%3E&lt;b&gt;v&lt;/b&gt;&lt;/span&gt;" style="edgeLabel;html=1;align=center;verticalAlign=middle;resizable=0;points=[];fontSize=10;labelBackgroundColor=none;" parent="Xm_MsKvLFg5GjumQJe7x-52" vertex="1" connectable="0">
                    <mxGeometry x="-0.192" relative="1" as="geometry">
                        <mxPoint x="35" y="21" as="offset"/>
                    </mxGeometry>
                </mxCell>
                <mxCell id="4" value="" style="endArrow=classic;html=1;" parent="1" edge="1">
                    <mxGeometry width="50" height="50" relative="1" as="geometry">
                        <mxPoint x="560" y="732.9999999999999" as="sourcePoint"/>
                        <mxPoint x="200" y="732.9999999999999" as="targetPoint"/>
                    </mxGeometry>
                </mxCell>
                <mxCell id="5" value="repeat" style="edgeLabel;html=1;align=center;verticalAlign=middle;resizable=0;points=[];" parent="4" vertex="1" connectable="0">
                    <mxGeometry x="0.1831" relative="1" as="geometry">
                        <mxPoint x="13.1" y="-10" as="offset"/>
                    </mxGeometry>
                </mxCell>
                <mxCell id="6" value="" style="endArrow=classic;html=1;" parent="1" edge="1">
                    <mxGeometry width="50" height="50" relative="1" as="geometry">
                        <mxPoint x="200.0000000000001" y="769.9999999999999" as="sourcePoint"/>
                        <mxPoint x="560" y="769.9999999999999" as="targetPoint"/>
                    </mxGeometry>
                </mxCell>
                <mxCell id="7" value="guess&amp;nbsp;" style="edgeLabel;html=1;align=center;verticalAlign=middle;resizable=0;points=[];" parent="6" vertex="1" connectable="0">
                    <mxGeometry x="-0.1141" relative="1" as="geometry">
                        <mxPoint x="20" y="-11" as="offset"/>
                    </mxGeometry>
                </mxCell>
                <mxCell id="27" value="" style="endArrow=none;dashed=1;html=1;entryX=0.5;entryY=1;entryDx=0;entryDy=0;exitX=0.495;exitY=0.267;exitDx=0;exitDy=0;exitPerimeter=0;" parent="1" source="Xm_MsKvLFg5GjumQJe7x-69" target="26" edge="1">
                    <mxGeometry width="50" height="50" relative="1" as="geometry">
                        <mxPoint x="200" y="1013" as="sourcePoint"/>
                        <mxPoint x="200" y="863" as="targetPoint"/>
                    </mxGeometry>
                </mxCell>
                <mxCell id="39" value="do while &lt;br&gt;&lt;b&gt;[&lt;/b&gt;&lt;i&gt;answer &lt;/i&gt;&lt;br&gt;is correct&lt;br&gt;&amp;amp;&amp;amp;&lt;br&gt;not expired&lt;b&gt;]&lt;/b&gt;" style="text;html=1;align=center;verticalAlign=middle;resizable=0;points=[];autosize=1;" parent="1" vertex="1">
                    <mxGeometry x="115" y="593" width="80" height="80" as="geometry"/>
                </mxCell>
                <mxCell id="34" value="" style="rounded=0;whiteSpace=wrap;html=1;" parent="1" vertex="1">
                    <mxGeometry x="435" y="1193" width="10" height="21" as="geometry"/>
                </mxCell>
                <mxCell id="32" value="" style="rounded=0;whiteSpace=wrap;html=1;" parent="1" vertex="1">
                    <mxGeometry x="555" y="1057" width="10" height="11" as="geometry"/>
                </mxCell>
                <mxCell id="30" value="" style="rounded=0;whiteSpace=wrap;html=1;" parent="1" vertex="1">
                    <mxGeometry x="555" y="993" width="10" height="21" as="geometry"/>
                </mxCell>
                <mxCell id="22" value="" style="rounded=0;whiteSpace=wrap;html=1;" parent="1" vertex="1">
                    <mxGeometry x="195" y="843" width="10" height="20" as="geometry"/>
                </mxCell>
                <mxCell id="24" value="" style="rounded=0;whiteSpace=wrap;html=1;" parent="1" vertex="1">
                    <mxGeometry x="195" y="543" width="10" height="67" as="geometry"/>
                </mxCell>
                <mxCell id="26" value="" style="rounded=0;whiteSpace=wrap;html=1;" parent="1" vertex="1">
                    <mxGeometry x="195" y="863" width="10" height="40" as="geometry"/>
                </mxCell>
                <mxCell id="10" value="" style="rounded=0;whiteSpace=wrap;html=1;" parent="1" vertex="1">
                    <mxGeometry x="195" y="250" width="10" height="50" as="geometry"/>
                </mxCell>
                <mxCell id="Xm_MsKvLFg5GjumQJe7x-4" value="Server" style="rounded=0;whiteSpace=wrap;html=1;" parent="1" vertex="1">
                    <mxGeometry x="140" y="60" width="120" height="60" as="geometry"/>
                </mxCell>
                <mxCell id="Xm_MsKvLFg5GjumQJe7x-5" value=":client1" style="rounded=0;whiteSpace=wrap;html=1;" parent="1" vertex="1">
                    <mxGeometry x="500" y="60" width="120" height="60" as="geometry"/>
                </mxCell>
                <mxCell id="Xm_MsKvLFg5GjumQJe7x-6" value="" style="endArrow=none;dashed=1;html=1;entryX=0.5;entryY=1;entryDx=0;entryDy=0;" parent="1" source="8" target="Xm_MsKvLFg5GjumQJe7x-4" edge="1">
                    <mxGeometry width="50" height="50" relative="1" as="geometry">
                        <mxPoint x="200" y="810" as="sourcePoint"/>
                        <mxPoint x="370" y="440" as="targetPoint"/>
                    </mxGeometry>
                </mxCell>
                <mxCell id="Xm_MsKvLFg5GjumQJe7x-7" value="" style="endArrow=none;dashed=1;html=1;entryX=0.5;entryY=1;entryDx=0;entryDy=0;" parent="1" source="45" edge="1">
                    <mxGeometry width="50" height="50" relative="1" as="geometry">
                        <mxPoint x="560" y="810" as="sourcePoint"/>
                        <mxPoint x="559.5" y="120" as="targetPoint"/>
                    </mxGeometry>
                </mxCell>
                <mxCell id="Xm_MsKvLFg5GjumQJe7x-10" value="&lt;b&gt;&lt;font style=&quot;font-size: 27px&quot;&gt;Socket.io - Duel&lt;/font&gt;&lt;/b&gt;" style="text;html=1;align=center;verticalAlign=middle;resizable=0;points=[];autosize=1;" parent="1" vertex="1">
                    <mxGeometry x="270" y="20" width="220" height="20" as="geometry"/>
                </mxCell>
                <mxCell id="Xm_MsKvLFg5GjumQJe7x-21" value="&lt;b&gt;[&lt;/b&gt;not already playing&lt;b&gt;]&lt;/b&gt;" style="text;html=1;align=center;verticalAlign=middle;resizable=0;points=[];autosize=1;" parent="1" vertex="1">
                    <mxGeometry x="50" y="250" width="120" height="20" as="geometry"/>
                </mxCell>
                <mxCell id="Xm_MsKvLFg5GjumQJe7x-22" value="&lt;b&gt;[&lt;/b&gt;else&lt;b&gt;]&lt;/b&gt;" style="text;html=1;align=center;verticalAlign=middle;resizable=0;points=[];autosize=1;rotation=0;" parent="1" vertex="1">
                    <mxGeometry x="105" y="973" width="50" height="20" as="geometry"/>
                </mxCell>
                <mxCell id="Xm_MsKvLFg5GjumQJe7x-23" value="" style="endArrow=classic;html=1;" parent="1" edge="1">
                    <mxGeometry width="50" height="50" relative="1" as="geometry">
                        <mxPoint x="560" y="250" as="sourcePoint"/>
                        <mxPoint x="200" y="250" as="targetPoint"/>
                    </mxGeometry>
                </mxCell>
                <mxCell id="Xm_MsKvLFg5GjumQJe7x-24" value="start" style="edgeLabel;html=1;align=center;verticalAlign=middle;resizable=0;points=[];" parent="Xm_MsKvLFg5GjumQJe7x-23" vertex="1" connectable="0">
                    <mxGeometry x="0.0458" relative="1" as="geometry">
                        <mxPoint y="-10" as="offset"/>
                    </mxGeometry>
                </mxCell>
                <mxCell id="Xm_MsKvLFg5GjumQJe7x-26" style="edgeStyle=orthogonalEdgeStyle;rounded=0;orthogonalLoop=1;jettySize=auto;html=1;dashed=1;dashPattern=1 1;exitX=0.5;exitY=1;exitDx=0;exitDy=0;exitPerimeter=0;" parent="1" source="Xm_MsKvLFg5GjumQJe7x-25" edge="1">
                    <mxGeometry relative="1" as="geometry">
                        <mxPoint x="410" y="150" as="targetPoint"/>
                        <Array as="points">
                            <mxPoint x="1170" y="150"/>
                        </Array>
                    </mxGeometry>
                </mxCell>
                <mxCell id="Xm_MsKvLFg5GjumQJe7x-25" value="connection can be initialized with the JWT in the field&amp;nbsp;&lt;b&gt;Authorization (Bearer),&amp;nbsp;&lt;/b&gt;inside the payload,&lt;b&gt;&amp;nbsp;&lt;/b&gt;in order to play with a registered account" style="shape=note;whiteSpace=wrap;html=1;backgroundOutline=1;darkOpacity=0.05;size=17;" parent="1" vertex="1">
                    <mxGeometry x="1110" y="10" width="120" height="110" as="geometry"/>
                </mxCell>
                <mxCell id="Xm_MsKvLFg5GjumQJe7x-30" value="&lt;b&gt;[&lt;/b&gt;(jwt present &amp;amp;&amp;amp; ok) || (jwt not present)&lt;b&gt;]&lt;/b&gt;" style="text;html=1;align=center;verticalAlign=middle;resizable=0;points=[];autosize=1;" parent="1" vertex="1">
                    <mxGeometry x="200" y="498" width="220" height="20" as="geometry"/>
                </mxCell>
                <mxCell id="Xm_MsKvLFg5GjumQJe7x-46" style="edgeStyle=orthogonalEdgeStyle;rounded=0;orthogonalLoop=1;jettySize=auto;html=1;dashed=1;dashPattern=1 1;" parent="1" source="Xm_MsKvLFg5GjumQJe7x-45" edge="1">
                    <mxGeometry relative="1" as="geometry">
                        <mxPoint x="440" y="841" as="targetPoint"/>
                        <Array as="points">
                            <mxPoint x="555" y="842"/>
                        </Array>
                    </mxGeometry>
                </mxCell>
                <mxCell id="Xm_MsKvLFg5GjumQJe7x-45" value="&lt;b&gt;psw &lt;/b&gt;can be 1 or 2&lt;b&gt;&amp;nbsp;&lt;/b&gt;&lt;span style=&quot;color: rgba(0 , 0 , 0 , 0) ; font-family: monospace ; font-size: 0px&quot;&gt;%3CmxGraphModel%3E%3Croot%3E%3CmxCell%20id%3D%220%22%2F%3E%3CmxCell%20id%3D%221%22%20parent%3D%220%22%2F%3E%3CmxCell%20id%3D%222%22%20value%3D%22loop%22%20style%3D%22shape%3DumlFrame%3BwhiteSpace%3Dwrap%3Bhtml%3D1%3B%22%20vertex%3D%221%22%20parent%3D%221%22%3E%3CmxGeometry%20x%3D%22130%22%20y%3D%22400%22%20width%3D%22480%22%20height%3D%22160%22%20as%3D%22geometry%22%2F%3E%3C%2FmxCell%3E%3C%2Froot%3E%3C%2FmxGraphModel%3Evapuò valre&lt;/span&gt;" style="shape=note;whiteSpace=wrap;html=1;backgroundOutline=1;darkOpacity=0.05;size=12;" parent="1" vertex="1">
                    <mxGeometry x="1210" y="791" width="80" height="101" as="geometry"/>
                </mxCell>
                <mxCell id="Xm_MsKvLFg5GjumQJe7x-51" value="do while &lt;br&gt;&lt;b&gt;[&lt;/b&gt;&lt;i&gt;answer &lt;/i&gt;&lt;br&gt;is correct&lt;br&gt;&amp;amp;&amp;amp;&lt;br&gt;not expired&lt;b&gt;]&lt;/b&gt;" style="text;html=1;align=center;verticalAlign=middle;resizable=0;points=[];autosize=1;" parent="1" vertex="1">
                    <mxGeometry x="115" y="593" width="80" height="80" as="geometry"/>
                </mxCell>
                <mxCell id="Xm_MsKvLFg5GjumQJe7x-54" value="" style="endArrow=none;dashed=1;html=1;exitX=0.002;exitY=0.896;exitDx=0;exitDy=0;exitPerimeter=0;entryX=1.001;entryY=0.903;entryDx=0;entryDy=0;entryPerimeter=0;" parent="1" edge="1">
                    <mxGeometry width="50" height="50" relative="1" as="geometry">
                        <mxPoint x="107.06999999999994" y="963.0799999999999" as="sourcePoint"/>
                        <mxPoint x="1141.0349999999999" y="966.44" as="targetPoint"/>
                    </mxGeometry>
                </mxCell>
                <mxCell id="Xm_MsKvLFg5GjumQJe7x-62" value="" style="endArrow=classic;html=1;" parent="1" edge="1">
                    <mxGeometry width="50" height="50" relative="1" as="geometry">
                        <mxPoint x="200" y="993" as="sourcePoint"/>
                        <mxPoint x="560" y="993" as="targetPoint"/>
                    </mxGeometry>
                </mxCell>
                <mxCell id="Xm_MsKvLFg5GjumQJe7x-64" value="on-error*" style="edgeLabel;html=1;align=center;verticalAlign=middle;resizable=0;points=[];" parent="Xm_MsKvLFg5GjumQJe7x-62" vertex="1" connectable="0">
                    <mxGeometry x="-0.5568" y="-2" relative="1" as="geometry">
                        <mxPoint x="82.93" y="-12" as="offset"/>
                    </mxGeometry>
                </mxCell>
                <mxCell id="Xm_MsKvLFg5GjumQJe7x-69" value="" style="shape=umlDestroy;whiteSpace=wrap;html=1;strokeWidth=3;" parent="1" vertex="1">
                    <mxGeometry x="195" y="1077" width="10" height="11" as="geometry"/>
                </mxCell>
                <mxCell id="Xm_MsKvLFg5GjumQJe7x-72" value="" style="shape=umlDestroy;whiteSpace=wrap;html=1;strokeWidth=3;" parent="1" vertex="1">
                    <mxGeometry x="555" y="1077" width="10" height="11" as="geometry"/>
                </mxCell>
                <mxCell id="Xm_MsKvLFg5GjumQJe7x-77" value="" style="endArrow=none;dashed=1;html=1;" parent="1" source="zyYeEw9DviOeEFQDKdv3-1" edge="1">
                    <mxGeometry width="50" height="50" relative="1" as="geometry">
                        <mxPoint x="80" y="1293" as="sourcePoint"/>
                        <mxPoint x="80" y="1140" as="targetPoint"/>
                    </mxGeometry>
                </mxCell>
                <mxCell id="Xm_MsKvLFg5GjumQJe7x-78" value="" style="endArrow=none;dashed=1;html=1;" parent="1" source="34" edge="1">
                    <mxGeometry width="50" height="50" relative="1" as="geometry">
                        <mxPoint x="439.4100000000001" y="1293" as="sourcePoint"/>
                        <mxPoint x="439" y="1140" as="targetPoint"/>
                    </mxGeometry>
                </mxCell>
                <mxCell id="Xm_MsKvLFg5GjumQJe7x-79" value="" style="endArrow=classic;html=1;" parent="1" edge="1">
                    <mxGeometry width="50" height="50" relative="1" as="geometry">
                        <mxPoint x="80" y="1193" as="sourcePoint"/>
                        <mxPoint x="440" y="1193" as="targetPoint"/>
                        <Array as="points">
                            <mxPoint x="250" y="1193"/>
                        </Array>
                    </mxGeometry>
                </mxCell>
                <mxCell id="Xm_MsKvLFg5GjumQJe7x-82" value="*on-error&amp;nbsp;&lt;span style=&quot;font-size: 11px ; background-color: rgb(255 , 255 , 255)&quot;&gt;{code:&amp;nbsp;&lt;/span&gt;&lt;b style=&quot;font-size: 11px&quot;&gt;errorcode&lt;/b&gt;&lt;span style=&quot;font-size: 11px ; background-color: rgb(255 , 255 , 255)&quot;&gt;, description:&amp;nbsp;&lt;/span&gt;&lt;b style=&quot;font-size: 11px&quot;&gt;text&lt;/b&gt;&lt;span style=&quot;font-size: 11px ; background-color: rgb(255 , 255 , 255)&quot;&gt;}&lt;/span&gt;" style="text;html=1;align=center;verticalAlign=middle;resizable=0;points=[];autosize=1;" parent="1" vertex="1">
                    <mxGeometry x="125" y="1163" width="240" height="20" as="geometry"/>
                </mxCell>
                <mxCell id="zyYeEw9DviOeEFQDKdv3-1" value="" style="shape=umlDestroy;whiteSpace=wrap;html=1;strokeWidth=3;" parent="1" vertex="1">
                    <mxGeometry x="75" y="1243" width="10" height="11" as="geometry"/>
                </mxCell>
                <mxCell id="zyYeEw9DviOeEFQDKdv3-3" value="" style="shape=umlDestroy;whiteSpace=wrap;html=1;strokeWidth=3;" parent="1" vertex="1">
                    <mxGeometry x="435" y="1243" width="10" height="11" as="geometry"/>
                </mxCell>
                <mxCell id="8" value="" style="rounded=0;whiteSpace=wrap;html=1;" parent="1" vertex="1">
                    <mxGeometry x="195" y="160" width="10" height="20" as="geometry"/>
                </mxCell>
                <mxCell id="11" value="" style="endArrow=none;dashed=1;html=1;entryX=0.5;entryY=1;entryDx=0;entryDy=0;" parent="1" source="24" edge="1">
                    <mxGeometry width="50" height="50" relative="1" as="geometry">
                        <mxPoint x="200" y="1013" as="sourcePoint"/>
                        <mxPoint x="200" y="543" as="targetPoint"/>
                    </mxGeometry>
                </mxCell>
                <mxCell id="12" value="&lt;b&gt;[&lt;/b&gt;else&lt;b&gt;]&lt;/b&gt;" style="text;html=1;align=center;verticalAlign=middle;resizable=0;points=[];autosize=1;rotation=0;" parent="1" vertex="1">
                    <mxGeometry x="100" y="1057" width="50" height="20" as="geometry"/>
                </mxCell>
                <mxCell id="13" value="" style="endArrow=classic;html=1;" parent="1" edge="1">
                    <mxGeometry width="50" height="50" relative="1" as="geometry">
                        <mxPoint x="200" y="1057" as="sourcePoint"/>
                        <mxPoint x="560" y="1057" as="targetPoint"/>
                    </mxGeometry>
                </mxCell>
                <mxCell id="14" value="on-error*" style="edgeLabel;html=1;align=center;verticalAlign=middle;resizable=0;points=[];" parent="13" vertex="1" connectable="0">
                    <mxGeometry x="-0.5568" y="-2" relative="1" as="geometry">
                        <mxPoint x="82.93" y="-12" as="offset"/>
                    </mxGeometry>
                </mxCell>
                <mxCell id="18" value="" style="endArrow=none;dashed=1;html=1;entryX=0.5;entryY=1;entryDx=0;entryDy=0;" parent="1" target="17" edge="1">
                    <mxGeometry width="50" height="50" relative="1" as="geometry">
                        <mxPoint x="560" y="970" as="sourcePoint"/>
                        <mxPoint x="559.5" y="323" as="targetPoint"/>
                    </mxGeometry>
                </mxCell>
                <mxCell id="20" value="" style="endArrow=none;dashed=1;html=1;entryX=0.5;entryY=1;entryDx=0;entryDy=0;" parent="1" source="22" target="19" edge="1">
                    <mxGeometry width="50" height="50" relative="1" as="geometry">
                        <mxPoint x="200" y="1013" as="sourcePoint"/>
                        <mxPoint x="200" y="473" as="targetPoint"/>
                    </mxGeometry>
                </mxCell>
                <mxCell id="23" value="" style="endArrow=none;dashed=1;html=1;entryX=0.5;entryY=1;entryDx=0;entryDy=0;" parent="1" source="26" target="22" edge="1">
                    <mxGeometry width="50" height="50" relative="1" as="geometry">
                        <mxPoint x="200" y="1013" as="sourcePoint"/>
                        <mxPoint x="200" y="775.9999999999999" as="targetPoint"/>
                    </mxGeometry>
                </mxCell>
                <mxCell id="25" value="" style="endArrow=none;dashed=1;html=1;entryX=0.5;entryY=1;entryDx=0;entryDy=0;" parent="1" source="19" target="24" edge="1">
                    <mxGeometry width="50" height="50" relative="1" as="geometry">
                        <mxPoint x="200" y="733" as="sourcePoint"/>
                        <mxPoint x="200" y="473" as="targetPoint"/>
                    </mxGeometry>
                </mxCell>
                <mxCell id="29" value="" style="endArrow=none;dashed=1;html=1;entryX=0.5;entryY=1;entryDx=0;entryDy=0;" parent="1" source="30" edge="1">
                    <mxGeometry width="50" height="50" relative="1" as="geometry">
                        <mxPoint x="560" y="1053" as="sourcePoint"/>
                        <mxPoint x="560" y="959" as="targetPoint"/>
                    </mxGeometry>
                </mxCell>
                <mxCell id="31" value="" style="endArrow=none;dashed=1;html=1;entryX=0.5;entryY=1;entryDx=0;entryDy=0;" parent="1" source="32" target="30" edge="1">
                    <mxGeometry width="50" height="50" relative="1" as="geometry">
                        <mxPoint x="560" y="1053" as="sourcePoint"/>
                        <mxPoint x="560" y="959" as="targetPoint"/>
                    </mxGeometry>
                </mxCell>
                <mxCell id="33" value="" style="endArrow=none;dashed=1;html=1;entryX=0.5;entryY=1;entryDx=0;entryDy=0;" parent="1" target="32" edge="1">
                    <mxGeometry width="50" height="50" relative="1" as="geometry">
                        <mxPoint x="560" y="1067" as="sourcePoint"/>
                        <mxPoint x="560" y="1027" as="targetPoint"/>
                    </mxGeometry>
                </mxCell>
                <mxCell id="35" value="" style="endArrow=none;dashed=1;html=1;" parent="1" source="zyYeEw9DviOeEFQDKdv3-3" target="34" edge="1">
                    <mxGeometry width="50" height="50" relative="1" as="geometry">
                        <mxPoint x="439.9796551724139" y="1243" as="sourcePoint"/>
                        <mxPoint x="439.4100000000001" y="1103" as="targetPoint"/>
                    </mxGeometry>
                </mxCell>
                <mxCell id="36" value=":client2" style="rounded=0;whiteSpace=wrap;html=1;" parent="1" vertex="1">
                    <mxGeometry x="840" y="60" width="120" height="60" as="geometry"/>
                </mxCell>
                <mxCell id="37" value="" style="endArrow=none;dashed=1;html=1;entryX=0.5;entryY=1;entryDx=0;entryDy=0;" parent="1" source="102" edge="1">
                    <mxGeometry width="50" height="50" relative="1" as="geometry">
                        <mxPoint x="899" y="930" as="sourcePoint"/>
                        <mxPoint x="899.5" y="120" as="targetPoint"/>
                    </mxGeometry>
                </mxCell>
                <mxCell id="41" value="" style="endArrow=classic;html=1;" parent="1" edge="1">
                    <mxGeometry width="50" height="50" relative="1" as="geometry">
                        <mxPoint x="200" y="293" as="sourcePoint"/>
                        <mxPoint x="560" y="293" as="targetPoint"/>
                    </mxGeometry>
                </mxCell>
                <mxCell id="42" value="player-join &lt;br&gt;{ id: &lt;b&gt;string&lt;/b&gt;, name: &lt;b&gt;string&lt;/b&gt;, players: &lt;b&gt;number&lt;/b&gt;, max: &lt;b&gt;number &lt;/b&gt;}&lt;b&gt;&amp;nbsp;&lt;/b&gt;" style="edgeLabel;html=1;align=center;verticalAlign=middle;resizable=0;points=[];" parent="41" vertex="1" connectable="0">
                    <mxGeometry x="-0.1141" relative="1" as="geometry">
                        <mxPoint x="5.6899999999999995" y="-20" as="offset"/>
                    </mxGeometry>
                </mxCell>
                <mxCell id="46" value="" style="endArrow=none;dashed=1;html=1;entryX=0.5;entryY=1;entryDx=0;entryDy=0;" parent="1" source="47" target="45" edge="1">
                    <mxGeometry width="50" height="50" relative="1" as="geometry">
                        <mxPoint x="559.8689320388348" y="500" as="sourcePoint"/>
                        <mxPoint x="559.5" y="120" as="targetPoint"/>
                    </mxGeometry>
                </mxCell>
                <mxCell id="48" value="" style="endArrow=none;dashed=1;html=1;entryX=0.5;entryY=1;entryDx=0;entryDy=0;" parent="1" source="17" target="47" edge="1">
                    <mxGeometry width="50" height="50" relative="1" as="geometry">
                        <mxPoint x="560" y="500" as="sourcePoint"/>
                        <mxPoint x="560" y="250" as="targetPoint"/>
                    </mxGeometry>
                </mxCell>
                <mxCell id="49" value="" style="endArrow=classic;html=1;" parent="1" edge="1">
                    <mxGeometry width="50" height="50" relative="1" as="geometry">
                        <mxPoint x="560" y="250" as="sourcePoint"/>
                        <mxPoint x="200" y="250" as="targetPoint"/>
                    </mxGeometry>
                </mxCell>
                <mxCell id="50" value="start" style="edgeLabel;html=1;align=center;verticalAlign=middle;resizable=0;points=[];" parent="49" vertex="1" connectable="0">
                    <mxGeometry x="0.0458" relative="1" as="geometry">
                        <mxPoint y="-10" as="offset"/>
                    </mxGeometry>
                </mxCell>
                <mxCell id="51" value="" style="endArrow=classic;html=1;" parent="1" edge="1">
                    <mxGeometry width="50" height="50" relative="1" as="geometry">
                        <mxPoint x="200" y="293" as="sourcePoint"/>
                        <mxPoint x="560" y="293" as="targetPoint"/>
                    </mxGeometry>
                </mxCell>
                <mxCell id="52" value="player-join &lt;br&gt;{ id: &lt;b&gt;string&lt;/b&gt;, name: &lt;b&gt;string&lt;/b&gt;, players: &lt;b&gt;number&lt;/b&gt;, max: &lt;b&gt;number &lt;/b&gt;}&lt;b&gt;&amp;nbsp;&lt;/b&gt;" style="edgeLabel;html=1;align=center;verticalAlign=middle;resizable=0;points=[];" parent="51" vertex="1" connectable="0">
                    <mxGeometry x="-0.1141" relative="1" as="geometry">
                        <mxPoint x="5.6899999999999995" y="-20" as="offset"/>
                    </mxGeometry>
                </mxCell>
                <mxCell id="53" value="" style="rounded=0;whiteSpace=wrap;html=1;" parent="1" vertex="1">
                    <mxGeometry x="195" y="250" width="10" height="70" as="geometry"/>
                </mxCell>
                <mxCell id="72" value="" style="endArrow=classic;html=1;entryX=1;entryY=0;entryDx=0;entryDy=0;exitX=0.5;exitY=0;exitDx=0;exitDy=0;" parent="1" source="74" target="76" edge="1">
                    <mxGeometry width="50" height="50" relative="1" as="geometry">
                        <mxPoint x="890" y="190" as="sourcePoint"/>
                        <mxPoint x="539" y="170" as="targetPoint"/>
                    </mxGeometry>
                </mxCell>
                <mxCell id="73" value="connection" style="edgeLabel;html=1;align=center;verticalAlign=middle;resizable=0;points=[];" parent="72" vertex="1" connectable="0">
                    <mxGeometry x="-0.4" y="2" relative="1" as="geometry">
                        <mxPoint x="-72" y="-12" as="offset"/>
                    </mxGeometry>
                </mxCell>
                <mxCell id="74" value="" style="rounded=0;whiteSpace=wrap;html=1;" parent="1" vertex="1">
                    <mxGeometry x="894" y="190" width="10" height="150" as="geometry"/>
                </mxCell>
                <mxCell id="75" value="" style="rounded=0;whiteSpace=wrap;html=1;" parent="1" vertex="1">
                    <mxGeometry x="894" y="375" width="10" height="20" as="geometry"/>
                </mxCell>
                <mxCell id="76" value="" style="rounded=0;whiteSpace=wrap;html=1;" parent="1" vertex="1">
                    <mxGeometry x="195" y="190" width="10" height="20" as="geometry"/>
                </mxCell>
                <mxCell id="83" style="edgeStyle=orthogonalEdgeStyle;rounded=0;orthogonalLoop=1;jettySize=auto;html=1;dashed=1;dashPattern=1 1;exitX=0.5;exitY=1;exitDx=0;exitDy=0;exitPerimeter=0;" parent="1" edge="1">
                    <mxGeometry relative="1" as="geometry">
                        <mxPoint x="640" y="181" as="targetPoint"/>
                        <Array as="points">
                            <mxPoint x="1170" y="150"/>
                            <mxPoint x="670" y="150"/>
                            <mxPoint x="670" y="181"/>
                        </Array>
                        <mxPoint x="1170" y="121" as="sourcePoint"/>
                    </mxGeometry>
                </mxCell>
                <mxCell id="77" value="" style="endArrow=classic;html=1;exitX=0.083;exitY=0.968;exitDx=0;exitDy=0;exitPerimeter=0;" parent="1" source="74" edge="1">
                    <mxGeometry width="50" height="50" relative="1" as="geometry">
                        <mxPoint x="560" y="335.04999999999995" as="sourcePoint"/>
                        <mxPoint x="199" y="335" as="targetPoint"/>
                    </mxGeometry>
                </mxCell>
                <mxCell id="78" value="start" style="edgeLabel;html=1;align=center;verticalAlign=middle;resizable=0;points=[];" parent="77" vertex="1" connectable="0">
                    <mxGeometry x="0.0458" relative="1" as="geometry">
                        <mxPoint y="-10" as="offset"/>
                    </mxGeometry>
                </mxCell>
                <mxCell id="79" value="" style="endArrow=classic;html=1;" parent="1" edge="1">
                    <mxGeometry width="50" height="50" relative="1" as="geometry">
                        <mxPoint x="200.66666666666666" y="378" as="sourcePoint"/>
                        <mxPoint x="900" y="378" as="targetPoint"/>
                    </mxGeometry>
                </mxCell>
                <mxCell id="80" value="player-join &lt;br&gt;{ id: &lt;b&gt;string&lt;/b&gt;, name: &lt;b&gt;string&lt;/b&gt;, players: &lt;b&gt;number&lt;/b&gt;, max: &lt;b&gt;number &lt;/b&gt;}&lt;b&gt;&amp;nbsp;&lt;/b&gt;" style="edgeLabel;html=1;align=center;verticalAlign=middle;resizable=0;points=[];" parent="79" vertex="1" connectable="0">
                    <mxGeometry x="-0.1141" relative="1" as="geometry">
                        <mxPoint x="5.6899999999999995" y="-20" as="offset"/>
                    </mxGeometry>
                </mxCell>
                <mxCell id="90" value="" style="rounded=0;whiteSpace=wrap;html=1;" parent="1" vertex="1">
                    <mxGeometry x="555" y="432" width="10" height="20" as="geometry"/>
                </mxCell>
                <mxCell id="89" value="" style="endArrow=classic;html=1;entryX=0;entryY=0.5;entryDx=0;entryDy=0;" parent="1" target="90" edge="1">
                    <mxGeometry width="50" height="50" relative="1" as="geometry">
                        <mxPoint x="200" y="380" as="sourcePoint"/>
                        <mxPoint x="560" y="390" as="targetPoint"/>
                    </mxGeometry>
                </mxCell>
                <mxCell id="92" value="player-join &lt;br style=&quot;font-size: 8px;&quot;&gt;{ id: &lt;b style=&quot;font-size: 8px;&quot;&gt;string&lt;/b&gt;, name: &lt;b style=&quot;font-size: 8px;&quot;&gt;string&lt;/b&gt;, players: &lt;b style=&quot;font-size: 8px;&quot;&gt;number&lt;/b&gt;, max: &lt;b style=&quot;font-size: 8px;&quot;&gt;number &lt;/b&gt;}&lt;b style=&quot;font-size: 8px;&quot;&gt;&amp;nbsp;&lt;/b&gt;" style="edgeLabel;html=1;align=center;verticalAlign=middle;resizable=0;points=[];fontSize=8;rotation=10;" parent="1" vertex="1" connectable="0">
                    <mxGeometry x="449.998431372549" y="410" as="geometry"/>
                </mxCell>
                <mxCell id="94" value="" style="rounded=0;whiteSpace=wrap;html=1;" parent="1" vertex="1">
                    <mxGeometry x="555" y="310" width="10" height="10" as="geometry"/>
                </mxCell>
                <mxCell id="95" value="" style="endArrow=classic;html=1;" parent="1" edge="1">
                    <mxGeometry width="50" height="50" relative="1" as="geometry">
                        <mxPoint x="200" y="313" as="sourcePoint"/>
                        <mxPoint x="559.9999999999998" y="313" as="targetPoint"/>
                    </mxGeometry>
                </mxCell>
                <mxCell id="96" value="opponents { id: &lt;b&gt;string&lt;/b&gt;, name: &lt;b&gt;string&amp;nbsp;&lt;/b&gt;}[]&lt;b&gt;&amp;nbsp;&lt;/b&gt;" style="edgeLabel;html=1;align=center;verticalAlign=middle;resizable=0;points=[];" parent="95" vertex="1" connectable="0">
                    <mxGeometry x="-0.1141" relative="1" as="geometry">
                        <mxPoint x="5.6899999999999995" y="-10" as="offset"/>
                    </mxGeometry>
                </mxCell>
                <mxCell id="97" value="" style="rounded=0;whiteSpace=wrap;html=1;" parent="1" vertex="1">
                    <mxGeometry x="894" y="470" width="10" height="10" as="geometry"/>
                </mxCell>
                <mxCell id="98" value="" style="endArrow=classic;html=1;entryX=0;entryY=0.5;entryDx=0;entryDy=0;" parent="1" target="97" edge="1">
                    <mxGeometry width="50" height="50" relative="1" as="geometry">
                        <mxPoint x="200" y="473" as="sourcePoint"/>
                        <mxPoint x="559.9999999999998" y="473" as="targetPoint"/>
                    </mxGeometry>
                </mxCell>
                <mxCell id="99" value="opponents { id: &lt;b&gt;string&lt;/b&gt;, name: &lt;b&gt;string&amp;nbsp;&lt;/b&gt;}[]&lt;b&gt;&amp;nbsp;&lt;/b&gt;" style="edgeLabel;html=1;align=center;verticalAlign=middle;resizable=0;points=[];" parent="98" vertex="1" connectable="0">
                    <mxGeometry x="-0.1141" relative="1" as="geometry">
                        <mxPoint x="5.6899999999999995" y="-10" as="offset"/>
                    </mxGeometry>
                </mxCell>
                <mxCell id="102" value="" style="rounded=0;whiteSpace=wrap;html=1;" parent="1" vertex="1">
                    <mxGeometry x="895" y="660" width="10" height="190" as="geometry"/>
                </mxCell>
                <mxCell id="103" value="" style="endArrow=none;dashed=1;html=1;entryX=0.5;entryY=1;entryDx=0;entryDy=0;" parent="1" source="159" target="102" edge="1">
                    <mxGeometry width="50" height="50" relative="1" as="geometry">
                        <mxPoint x="900" y="970" as="sourcePoint"/>
                        <mxPoint x="899.5" y="120" as="targetPoint"/>
                    </mxGeometry>
                </mxCell>
                <mxCell id="100" value="" style="endArrow=classic;html=1;" parent="1" edge="1">
                    <mxGeometry width="50" height="50" relative="1" as="geometry">
                        <mxPoint x="200" y="600" as="sourcePoint"/>
                        <mxPoint x="900" y="660" as="targetPoint"/>
                    </mxGeometry>
                </mxCell>
                <mxCell id="101" value="guess { ids:&amp;nbsp;&lt;b&gt;string[]&lt;/b&gt;, data: { password1 :&amp;nbsp;&lt;b&gt;string&lt;/b&gt;, value1:&amp;nbsp;&lt;b&gt;number&lt;/b&gt;,&amp;nbsp;&lt;br&gt;password2:&amp;nbsp;&lt;b&gt;string&lt;/b&gt;&lt;b&gt;,&amp;nbsp;&lt;/b&gt;score:&amp;nbsp;&lt;b&gt;number?&lt;/b&gt;&lt;b&gt;,&amp;nbsp;&lt;/b&gt;timeout:&amp;nbsp;&lt;b&gt;number?&lt;/b&gt;&lt;b&gt;,&amp;nbsp;&lt;/b&gt;lost:&amp;nbsp;&lt;b&gt;boolean?&lt;/b&gt;&lt;b&gt;&lt;br&gt;&lt;/b&gt;,won:&amp;nbsp;&lt;b&gt;boolean&lt;/b&gt;?, guesses:&amp;nbsp;&lt;b&gt;number&lt;/b&gt;, duration:&amp;nbsp;&lt;b&gt;number&lt;/b&gt;, value2:&amp;nbsp;&lt;b&gt;string?&lt;/b&gt;}[] }&lt;span style=&quot;color: rgba(0, 0, 0, 0); font-family: monospace; font-size: 0px;&quot;&gt;%3CmxGraphModel%3E%3Croot%3E%3CmxCell%20id%3D%220%22%2F%3E%3CmxCell%20id%3D%221%22%20parent%3D%220%22%2F%3E%3CmxCell%20id%3D%222%22%20value%3D%22%22%20style%3D%22endArrow%3Dnone%3Bdashed%3D1%3Bhtml%3D1%3BentryX%3D0.5%3BentryY%3D1%3BentryDx%3D0%3BentryDy%3D0%3B%22%20edge%3D%221%22%20parent%3D%221%22%3E%3CmxGeometry%20width%3D%2250%22%20height%3D%2250%22%20relative%3D%221%22%20as%3D%22geometry%22%3E%3CmxPoint%20x%3D%22200%22%20y%3D%22760%22%20as%3D%22sourcePoint%22%2F%3E%3CmxPoint%20x%3D%22200%22%20y%3D%22120%22%20as%3D%22targetPoint%22%2F%3E%3C%2FmxGeometry%3E%3C%2FmxCell%3E%3C%2Froot%3E%3C%2FmxGraphModel%3E&lt;b&gt;v&lt;/b&gt;&lt;/span&gt;" style="edgeLabel;html=1;align=center;verticalAlign=top;resizable=0;points=[];rotation=5;labelBackgroundColor=none;" parent="100" vertex="1" connectable="0">
                    <mxGeometry x="-0.1141" relative="1" as="geometry">
                        <mxPoint x="239.37" y="-33.629999999999995" as="offset"/>
                    </mxGeometry>
                </mxCell>
                <mxCell id="Xm_MsKvLFg5GjumQJe7x-20" value="" style="endArrow=none;dashed=1;html=1;exitX=-0.001;exitY=0.904;exitDx=0;exitDy=0;exitPerimeter=0;" parent="1" edge="1">
                    <mxGeometry width="50" height="50" relative="1" as="geometry">
                        <mxPoint x="18.84999999999991" y="1018.4000000000001" as="sourcePoint"/>
                        <mxPoint x="1170" y="1018" as="targetPoint"/>
                    </mxGeometry>
                </mxCell>
                <mxCell id="110" value="" style="rounded=0;whiteSpace=wrap;html=1;" parent="1" vertex="1">
                    <mxGeometry x="713" y="1175" width="10" height="21" as="geometry"/>
                </mxCell>
                <mxCell id="113" value="" style="endArrow=none;dashed=1;html=1;" parent="1" source="110" edge="1">
                    <mxGeometry width="50" height="50" relative="1" as="geometry">
                        <mxPoint x="717.4100000000001" y="1294" as="sourcePoint"/>
                        <mxPoint x="717" y="1141" as="targetPoint"/>
                    </mxGeometry>
                </mxCell>
                <mxCell id="115" value="disconnect" style="text;html=1;align=center;verticalAlign=middle;resizable=0;points=[];autosize=1;" parent="1" vertex="1">
                    <mxGeometry x="605" y="1175" width="70" height="20" as="geometry"/>
                </mxCell>
                <mxCell id="117" value="" style="shape=umlDestroy;whiteSpace=wrap;html=1;strokeWidth=3;" parent="1" vertex="1">
                    <mxGeometry x="713" y="1211" width="10" height="11" as="geometry"/>
                </mxCell>
                <mxCell id="121" value="" style="endArrow=none;dashed=1;html=1;fontSize=8;entryX=0.5;entryY=1;entryDx=0;entryDy=0;exitX=0.46;exitY=0.54;exitDx=0;exitDy=0;exitPerimeter=0;" parent="1" source="117" target="110" edge="1">
                    <mxGeometry width="50" height="50" relative="1" as="geometry">
                        <mxPoint x="678" y="1218" as="sourcePoint"/>
                        <mxPoint x="728" y="1168" as="targetPoint"/>
                    </mxGeometry>
                </mxCell>
                <mxCell id="122" value="" style="rounded=0;whiteSpace=wrap;html=1;" parent="1" vertex="1">
                    <mxGeometry x="556" y="1195" width="10" height="21" as="geometry"/>
                </mxCell>
                <mxCell id="114" value="" style="endArrow=classic;html=1;" parent="1" edge="1">
                    <mxGeometry width="50" height="50" relative="1" as="geometry">
                        <mxPoint x="710" y="1194" as="sourcePoint"/>
                        <mxPoint x="560" y="1194" as="targetPoint"/>
                        <Array as="points">
                            <mxPoint x="720" y="1194"/>
                        </Array>
                    </mxGeometry>
                </mxCell>
                <mxCell id="125" value="quit" style="shape=umlFrame;whiteSpace=wrap;html=1;width=90;height=34;" parent="1" vertex="1">
                    <mxGeometry x="800" y="1142.5" width="370" height="121" as="geometry"/>
                </mxCell>
                <mxCell id="126" value="" style="endArrow=none;dashed=1;html=1;" parent="1" edge="1">
                    <mxGeometry width="50" height="50" relative="1" as="geometry">
                        <mxPoint x="859.9999999999998" y="1256.5" as="sourcePoint"/>
                        <mxPoint x="859.9999999999998" y="1176.5" as="targetPoint"/>
                    </mxGeometry>
                </mxCell>
                <mxCell id="127" value="" style="rounded=0;whiteSpace=wrap;html=1;" parent="1" vertex="1">
                    <mxGeometry x="1055" y="1173.5" width="10" height="21" as="geometry"/>
                </mxCell>
                <mxCell id="128" value="" style="endArrow=none;dashed=1;html=1;entryX=0.704;entryY=-0.001;entryDx=0;entryDy=0;entryPerimeter=0;" parent="1" source="127" target="125" edge="1">
                    <mxGeometry width="50" height="50" relative="1" as="geometry">
                        <mxPoint x="1059.41" y="1292.5" as="sourcePoint"/>
                        <mxPoint x="1070" y="1120" as="targetPoint"/>
                    </mxGeometry>
                </mxCell>
                <mxCell id="129" value="quit" style="text;html=1;align=center;verticalAlign=middle;resizable=0;points=[];autosize=1;" parent="1" vertex="1">
                    <mxGeometry x="950" y="1171" width="30" height="20" as="geometry"/>
                </mxCell>
                <mxCell id="132" value="" style="rounded=0;whiteSpace=wrap;html=1;" parent="1" vertex="1">
                    <mxGeometry x="856" y="1193.5" width="10" height="21" as="geometry"/>
                </mxCell>
                <mxCell id="133" value="" style="endArrow=classic;html=1;" parent="1" edge="1">
                    <mxGeometry width="50" height="50" relative="1" as="geometry">
                        <mxPoint x="1059.9999999999998" y="1192.4999999999998" as="sourcePoint"/>
                        <mxPoint x="859.9999999999998" y="1192.4999999999998" as="targetPoint"/>
                        <Array as="points">
                            <mxPoint x="1030" y="1192.5"/>
                        </Array>
                    </mxGeometry>
                </mxCell>
                <mxCell id="131" value="" style="endArrow=none;dashed=1;html=1;fontSize=8;entryX=0.5;entryY=1;entryDx=0;entryDy=0;" parent="1" target="127" edge="1">
                    <mxGeometry width="50" height="50" relative="1" as="geometry">
                        <mxPoint x="1060" y="1258" as="sourcePoint"/>
                        <mxPoint x="1070" y="1166.5" as="targetPoint"/>
                    </mxGeometry>
                </mxCell>
                <mxCell id="142" value="" style="rounded=0;whiteSpace=wrap;html=1;" parent="1" vertex="1">
                    <mxGeometry x="1124" y="1218.5" width="10" height="21" as="geometry"/>
                </mxCell>
                <mxCell id="143" value="" style="endArrow=none;dashed=1;html=1;entryX=0.891;entryY=-0.001;entryDx=0;entryDy=0;entryPerimeter=0;" parent="1" source="142" target="125" edge="1">
                    <mxGeometry width="50" height="50" relative="1" as="geometry">
                        <mxPoint x="1128.41" y="1330.5" as="sourcePoint"/>
                        <mxPoint x="1128" y="1177.5" as="targetPoint"/>
                    </mxGeometry>
                </mxCell>
                <mxCell id="144" value="" style="endArrow=none;dashed=1;html=1;fontSize=8;entryX=0.5;entryY=1;entryDx=0;entryDy=0;" parent="1" target="142" edge="1">
                    <mxGeometry width="50" height="50" relative="1" as="geometry">
                        <mxPoint x="1129" y="1260" as="sourcePoint"/>
                        <mxPoint x="1139" y="1204.5" as="targetPoint"/>
                    </mxGeometry>
                </mxCell>
                <mxCell id="146" value="" style="endArrow=classic;html=1;fontSize=8;exitX=0.5;exitY=1;exitDx=0;exitDy=0;entryX=0.5;entryY=0;entryDx=0;entryDy=0;" parent="1" source="132" target="142" edge="1">
                    <mxGeometry width="50" height="50" relative="1" as="geometry">
                        <mxPoint x="960" y="1240" as="sourcePoint"/>
                        <mxPoint x="1010" y="1190" as="targetPoint"/>
                    </mxGeometry>
                </mxCell>
                <mxCell id="149" value="guess" style="text;html=1;align=center;verticalAlign=middle;resizable=0;points=[];autosize=1;" parent="1" vertex="1">
                    <mxGeometry x="960" y="1211" width="50" height="20" as="geometry"/>
                </mxCell>
                <mxCell id="152" value="" style="rounded=0;whiteSpace=wrap;html=1;" parent="1" vertex="1">
                    <mxGeometry x="760" y="1231" width="10" height="21" as="geometry"/>
                </mxCell>
                <mxCell id="153" value="" style="endArrow=none;dashed=1;html=1;entryX=0.891;entryY=-0.001;entryDx=0;entryDy=0;entryPerimeter=0;" parent="1" source="152" edge="1">
                    <mxGeometry width="50" height="50" relative="1" as="geometry">
                        <mxPoint x="764.4100000000001" y="1330.62" as="sourcePoint"/>
                        <mxPoint x="765.6700000000001" y="1142.4999999999998" as="targetPoint"/>
                    </mxGeometry>
                </mxCell>
                <mxCell id="154" value="" style="endArrow=none;dashed=1;html=1;fontSize=8;entryX=0.5;entryY=1;entryDx=0;entryDy=0;" parent="1" target="152" edge="1">
                    <mxGeometry width="50" height="50" relative="1" as="geometry">
                        <mxPoint x="765" y="1260.12" as="sourcePoint"/>
                        <mxPoint x="775" y="1204.62" as="targetPoint"/>
                    </mxGeometry>
                </mxCell>
                <mxCell id="155" value="" style="endArrow=classic;html=1;fontSize=8;exitX=0.5;exitY=1;exitDx=0;exitDy=0;entryX=0.5;entryY=0;entryDx=0;entryDy=0;" parent="1" target="152" edge="1">
                    <mxGeometry width="50" height="50" relative="1" as="geometry">
                        <mxPoint x="565" y="1215.12" as="sourcePoint"/>
                        <mxPoint x="714" y="1191.62" as="targetPoint"/>
                    </mxGeometry>
                </mxCell>
                <mxCell id="156" value="guess" style="text;html=1;align=center;verticalAlign=middle;resizable=0;points=[];autosize=1;" parent="1" vertex="1">
                    <mxGeometry x="640" y="1218.5" width="50" height="20" as="geometry"/>
                </mxCell>
                <mxCell id="28" value="" style="rounded=0;whiteSpace=wrap;html=1;" parent="1" vertex="1">
                    <mxGeometry x="555" y="899" width="10" height="20" as="geometry"/>
                </mxCell>
                <mxCell id="159" value="" style="rounded=0;whiteSpace=wrap;html=1;" parent="1" vertex="1">
                    <mxGeometry x="895" y="892" width="10" height="20" as="geometry"/>
                </mxCell>
                <mxCell id="160" value="" style="endArrow=none;dashed=1;html=1;entryX=0.5;entryY=1;entryDx=0;entryDy=0;" parent="1" target="159" edge="1">
                    <mxGeometry width="50" height="50" relative="1" as="geometry">
                        <mxPoint x="899.9999999999998" y="970" as="sourcePoint"/>
                        <mxPoint x="899.9999999999998" y="850" as="targetPoint"/>
                    </mxGeometry>
                </mxCell>
                <mxCell id="157" value="" style="endArrow=classic;html=1;exitX=1;exitY=0.75;exitDx=0;exitDy=0;" parent="1" source="26" edge="1">
                    <mxGeometry width="50" height="50" relative="1" as="geometry">
                        <mxPoint x="210" y="909" as="sourcePoint"/>
                        <mxPoint x="900" y="893" as="targetPoint"/>
                    </mxGeometry>
                </mxCell>
                <mxCell id="158" value="&lt;span style=&quot;font-size: 11px&quot;&gt;guess { ids:&amp;nbsp;&lt;/span&gt;&lt;b style=&quot;font-size: 11px&quot;&gt;string[]&lt;/b&gt;&lt;span style=&quot;font-size: 11px&quot;&gt;, data: { password1 :&amp;nbsp;&lt;/span&gt;&lt;b style=&quot;font-size: 11px&quot;&gt;string&lt;/b&gt;&lt;span style=&quot;font-size: 11px&quot;&gt;, value1:&amp;nbsp;&lt;/span&gt;&lt;b style=&quot;font-size: 11px&quot;&gt;number&lt;/b&gt;&lt;span style=&quot;font-size: 11px&quot;&gt;,&amp;nbsp;&lt;/span&gt;&lt;br style=&quot;font-size: 11px&quot;&gt;&lt;span style=&quot;font-size: 11px&quot;&gt;password2:&amp;nbsp;&lt;/span&gt;&lt;b style=&quot;font-size: 11px&quot;&gt;string&lt;/b&gt;&lt;b style=&quot;font-size: 11px&quot;&gt;,&amp;nbsp;&lt;/b&gt;&lt;span style=&quot;font-size: 11px&quot;&gt;score:&amp;nbsp;&lt;/span&gt;&lt;b style=&quot;font-size: 11px&quot;&gt;number&lt;/b&gt;&lt;b style=&quot;font-size: 11px&quot;&gt;,&amp;nbsp;&lt;/b&gt;&lt;span style=&quot;font-size: 11px&quot;&gt;timeout:&amp;nbsp;&lt;/span&gt;&lt;b style=&quot;font-size: 11px&quot;&gt;number&lt;/b&gt;&lt;b style=&quot;font-size: 11px&quot;&gt;,&amp;nbsp;&lt;/b&gt;&lt;span style=&quot;font-size: 11px&quot;&gt;lost:&amp;nbsp;&lt;/span&gt;&lt;b style=&quot;font-size: 11px&quot;&gt;boolean&lt;/b&gt;&lt;b style=&quot;font-size: 11px&quot;&gt;&lt;br&gt;&lt;/b&gt;&lt;span style=&quot;font-size: 11px&quot;&gt;,won:&amp;nbsp;&lt;b&gt;boolean&lt;/b&gt;, guesses:&amp;nbsp;&lt;/span&gt;&lt;b style=&quot;font-size: 11px&quot;&gt;number&lt;/b&gt;&lt;span style=&quot;font-size: 11px&quot;&gt;, duration:&amp;nbsp;&lt;/span&gt;&lt;b style=&quot;font-size: 11px&quot;&gt;number&lt;/b&gt;&lt;span style=&quot;font-size: 11px&quot;&gt;, value2:&amp;nbsp;&lt;/span&gt;&lt;b style=&quot;font-size: 11px&quot;&gt;string&lt;/b&gt;&lt;span style=&quot;font-size: 11px&quot;&gt;}[] }&lt;/span&gt;&lt;span style=&quot;color: rgba(0, 0, 0, 0); font-family: monospace; font-size: 0px;&quot;&gt;%3CmxGraphModel%3E%3Croot%3E%3CmxCell%20id%3D%220%22%2F%3E%3CmxCell%20id%3D%221%22%20parent%3D%220%22%2F%3E%3CmxCell%20id%3D%222%22%20value%3D%22%22%20style%3D%22endArrow%3Dnone%3Bdashed%3D1%3Bhtml%3D1%3BentryX%3D0.5%3BentryY%3D1%3BentryDx%3D0%3BentryDy%3D0%3B%22%20edge%3D%221%22%20parent%3D%221%22%3E%3CmxGeometry%20width%3D%2250%22%20height%3D%2250%22%20relative%3D%221%22%20as%3D%22geometry%22%3E%3CmxPoint%20x%3D%22200%22%20y%3D%22760%22%20as%3D%22sourcePoint%22%2F%3E%3CmxPoint%20x%3D%22200%22%20y%3D%22120%22%20as%3D%22targetPoint%22%2F%3E%3C%2FmxGeometry%3E%3C%2FmxCell%3E%3C%2Froot%3E%3C%2FmxGraphModel%3E&lt;b&gt;v&lt;/b&gt;&lt;/span&gt;" style="edgeLabel;html=1;align=center;verticalAlign=middle;resizable=0;points=[];fontSize=10;labelBackgroundColor=none;" parent="157" vertex="1" connectable="0">
                    <mxGeometry x="-0.192" relative="1" as="geometry">
                        <mxPoint x="244" y="27" as="offset"/>
                    </mxGeometry>
                </mxCell>
            </root>
        </mxGraphModel>
    </diagram>
</mxfile>